# AST/ASF file generated using VICON BodyLanguage
# -----------------------------------------------
:version 1.10
:name VICON
:units
  mass 1.0
  length 0.45
  angle deg
:documentation
   .ast/.asf automatically generated from VICON data using
   VICON BodyBuilder and BodyLanguage model FoxedUp or BRILLIANT.MOD
:root
   order TX TY TZ RX RY RZ
   axis XYZ
   position 0 0 0  
   orientation 0 0 0 
:bonedata
  begin
     id 1 
     name lhipjoint
     direction 0.756833 -0.6125 0.228138 
     length 2.53827 
     axis 0 0 0  XYZ
  end
  begin
     id 2 
     name lfemur
     direction 0.34202 -0.939693 0  
     length 6.51821  
     axis 0 0 20  XYZ
    dof rx ry rz
    limits (-160.0 20.0)
           (-70.0 70.0)
           (-60.0 70.0)
  end
  begin
     id 3 
     name ltibia
     direction 0.34202 -0.939693 0   
     length 6.99902   
     axis 0 0 20   XYZ
    dof rx
    limits (-10.0 170.0)
  end
  begin
     id 4 
     name lfoot
     direction 0.0951515 -0.261427 0.960522   
     length 1.92102   
     axis -90 7.62852e-016 20   XYZ
    dof rx rz
    limits (-45.0 90.0)
           (-70.0 20.0)
  end
  begin
     id 5 
     name ltoes
     direction 1.53539e-011 -4.21781e-011 1   
     length 0.964376   
     axis -90 7.62852e-016 20   XYZ
    dof rx
    limits (-90.0 20.0)
  end
  begin
     id 6 
     name rhipjoint
     direction -0.752153 -0.617542 0.230017   
     length 2.51754  
     axis 0 0 0  XYZ 
  end
  begin
     id 7 
     name rfemur
     direction -0.34202 -0.939693 0   
     length 6.82377   
     axis 0 0 -20   XYZ
    dof rx ry rz
    limits (-160.0 20.0)
           (-70.0 70.0)
           (-70.0 60.0)
  end
  begin
     id 8 
     name rtibia
     direction -0.34202 -0.939693 0   
     length 6.98689   
     axis 0 0 -20   XYZ
    dof rx
    limits (-10.0 170.0)
 end
 begin
     id 9 
     name rfoot
     direction -0.0900426 -0.24739 0.964723   
     length 2.03215  
     axis -90 -7.62852e-016 -20   XYZ
    dof rx rz
    limits (-45.0 90.0)
           (-20.0 70.0)
  end
  begin
     id 10 
     name rtoes
     direction -1.53466e-011 -4.22206e-011 1   
     length 1.0197   
     axis -90 -7.62852e-016 -20   XYZ
    dof rx
    limits (-90.0 20.0)
  end
  begin
     id 11 
     name lowerback
     direction 0.0184183 0.995705 -0.0907278   
     length 2.019   
     axis 0 0 0   XYZ
    dof rx ry rz
    limits (-20.0 45.0)
           (-30.0 30.0)
           (-30.0 30.0)
  end
  begin
     id 12 
     name upperback
     direction 0.00281055 0.998777 0.0493607   
     length 1.99623   
     axis 0 0 0   XYZ
    dof rx ry rz
    limits (-20.0 45.0)
           (-30.0 30.0)
           (-30.0 30.0)
  end
  begin
     id 13 
     name thorax
     direction -0.00665507 0.995706 0.092331   
     length 2.02811   
     axis 0 0 0   XYZ
    dof rx ry rz
    limits (-20.0 45.0)
           (-30.0 30.0)
           (-30.0 30.0)
  end
  begin
     id 14 
     name lowerneck
     direction -0.0960965 0.994358 0.0449225   
     length 1.71265   
     axis 0 0 0   XYZ
    dof rx ry rz
    limits (-20.0 45.0)
           (-30.0 30.0)
           (-30.0 30.0)
  end
  begin
     id 15 
     name upperneck
     direction 0.13642 0.985357 -0.102278   
     length 1.73016   
     axis 0 0 0   XYZ
    dof rx ry rz
    limits (-20.0 45.0)
           (-30.0 30.0)
           (-30.0 30.0)
  end
  begin
     id 16
     name head
     direction 0.0556079 0.997632 -0.040479  
     length 1.74275  
     axis 0 0 0   XYZ
    dof rx ry rz
    limits (-20.0 45.0)
           (-30.0 30.0)
           (-30.0 30.0)
  end
  begin
     id 17 
     name lclavicle
     direction 0.90877 0.417247 -0.00652364  
     length 3.25514  
     axis 0 0 0   XYZ
    dof ry rz
    limits (-20.0 10.0)
           (0.0 20.0)
  end
  begin
     id 18 
     name lhumerus
     direction 1 -4.48949e-011 8.31417e-028   
     length 4.84834   
     axis 180 -30 -90   XYZ
    dof rx ry rz
    limits (-60.0 90.0)
           (-90.0 90.0)
           (-90.0 90.0)
  end
  begin
     id 19
     name lradius
     direction 1 -4.48984e-011 3.45616e-027   
     length 2.99713   
     axis 180 -30 -90   XYZ
    dof rx
    limits (-10.0 170.0)
  end
  begin
     id 20
     name lwrist
     direction 1 -4.4891e-011 4.0479e-027   
     length 1.49857   
     axis -1.61768e-015 90 90   XYZ
    dof ry
    limits (-180.0 0.0)
 end
  begin
     id 21 
     name lhand
     direction 1 -4.49025e-011 8.0958e-027   
     length 0.693987   
     axis -5.16581e-015 90 90   XYZ
    dof rx rz
    limits (-90.0 90.0)
           (-45.0 45.0)
  end
  begin
     id 22 
     name lfingers
     direction 1 -4.4888e-011 1.61916e-026   
     length 0.55951   
     axis -1.03316e-014 90 90   XYZ
    dof rx
    limits (0.0 90.0)
  end
  begin
     id 23
     name lthumb
     direction 0.707107 -6.3493e-011 0.707107   
     length 0.803348   
     axis -90 45 2.85299e-015   XYZ
    dof rx rz
    limits (-45.0 45.0)
           (-45.0 45.0)
  end
  begin
     id 24 
     name rclavicle
     direction -0.906655 0.41906 0.0486307   
     length 3.3311  
     axis 0 0 0   XYZ 
    dof ry rz
    limits (-10.0 20.0)
           (-20.0 0.0)
  end
  begin
     id 25 
     name rhumerus
     direction -1 -4.48959e-011 6.37764e-018  
     length 4.93457   
     axis 180 30 90   XYZ
    dof rx ry rz
    limits (-90.0 60.0)
           (-90.0 90.0)
           (-90.0 90.0)
  end
  begin
     id 26 
     name rradius
     direction -1 -4.48957e-011 2.20847e-027   
     length 3.3443   
     axis 180 30 90   XYZ
    dof rx
    limits (-10.0 170.0)
  end
  begin
     id 27 
     name rwrist
     direction -1 -4.49008e-011 4.0479e-027   
     length 1.67215   
     axis -1.61768e-015 -90 -90   XYZ
    dof ry
    limits (-180.0 0.0)
  end
  begin
     id 28
     name rhand
     direction -1 -4.49013e-011 8.0958e-027   
     length 0.677363   
     axis -5.16581e-015 -90 -90   XYZ
    dof rx rz
    limits (-90.0 90.0)
           (-45.0 45.0)
  end
  begin
     id 29
     name rfingers
     direction -1 -4.48832e-011 1.61916e-026   
     length 0.546107   
     axis -1.03316e-014 -90 -90   XYZ
    dof rx
    limits (0.0 90.0)
  end
  begin
     id 30
     name rthumb
     direction -0.707107 -6.34895e-011 0.707107   
     length 0.784104   
     axis -90 -45 -2.85299e-015   XYZ
    dof rx rz
    limits (-45.0 45.0)
           (-45.0 45.0)
  end
:hierarchy
  begin
    root lhipjoint rhipjoint lowerback
    lhipjoint lfemur
    lfemur ltibia
    ltibia lfoot
    lfoot ltoes
    rhipjoint rfemur
    rfemur rtibia
    rtibia rfoot
    rfoot rtoes
    lowerback upperback
    upperback thorax
    thorax lowerneck lclavicle rclavicle
    lowerneck upperneck
    upperneck head
    lclavicle lhumerus
    lhumerus lradius
    lradius lwrist
    lwrist lhand lthumb
    lhand lfingers
    rclavicle rhumerus
    rhumerus rradius
    rradius rwrist
    rwrist rhand rthumb
    rhand rfingers
  end

#!OML:ASF H:\Terrain\Patient Classification 1\junglegym\FridayTest\junglegym.ASF
:FULLY-SPECIFIED
:DEGREES
389
root 9.75122 16.497 32.8836 5.93797 -0.672843 2.51788
lowerback 1.16556 -1.93496 -3.79997
upperback -3.28659 -2.6779 0.95703
thorax -3.8261 -1.20201 3.23199
lowerneck -4.19612 -0.55102 -13.5625
upperneck 9.2841 -0.753584 11.3143
head 3.51497 -0.340482 5.70173
rclavicle 3.00735e-014 9.93923e-015
rhumerus -45.0069 -6.48417 -78.1013
rradius 20.4339
rwrist 6.905
rhand -16.5028 27.7562
rfingers 7.12502
rthumb 9.71507 -1.99975
lclavicle 3.00735e-014 9.93923e-015
lhumerus -28.3804 -3.67933 81.6754
lradius 33.7774
lwrist -22.9181
lhand -8.95375 21.1962
lfingers 7.12502
lthumb 16.991 50.4731
rfemur -40.4506 7.29623 16.1678
rtibia 29.9384
rfoot -12.5011 -14.7568
rtoes 24.7655
lfemur 1.13741 -6.39367 -30.2679
ltibia 16.5185
lfoot -17.6855 11.8195
ltoes -12.8357
390
root 9.73295 16.4815 33.0491 6.52253 -0.952286 2.5726
lowerback 0.956837 -1.83981 -3.98815
upperback -3.50936 -2.55147 0.981247
thorax -3.94234 -1.12645 3.35538
lowerneck -4.29944 -0.638113 -13.4921
upperneck 9.44327 -0.861193 11.1845
head 3.59373 -0.39566 5.64637
rclavicle -2.76202e-015 -1.35174e-014
rhumerus -45.6119 -7.32308 -77.3518
rradius 20.1361
rwrist 7.52266
rhand -16.101 27.1064
rfingers 7.12502
rthumb 10.1027 -2.63104
lclavicle -2.76202e-015 -1.35174e-014
lhumerus -28.1084 -3.98322 81.517
lradius 34.4054
lwrist -22.8552
lhand -8.81688 21.2832
lfingers 7.12502
lthumb 17.1227 50.5487
rfemur -41.3892 8.93619 15.2893
rtibia 27.5057
rfoot -12.823 -17.008
rtoes 20.0625
lfemur 2.07937 -6.17697 -30.2705
ltibia 14.4717
lfoot -16.9855 11.5628
ltoes -12.1787
391
root 9.72854 16.4763 33.2513 6.60966 -0.764395 2.20498
lowerback 0.850241 -1.96179 -3.52367
upperback -3.55416 -2.69206 1.12186
thorax -3.92858 -1.209 3.24236
lowerneck -2.28078 0.0780179 -15.1327
upperneck 7.40213 -0.0990442 13.3339
head 2.54093 -0.029302 6.60528
rclavicle 2.15436e-014 -9.93923e-015
rhumerus -46.1776 -8.45718 -76.1947
rradius 19.627
rwrist 9.0615
rhand -16.1295 27.0759
rfingers 7.12502
rthumb 10.0752 -2.66294
lclavicle 2.15436e-014 -9.93923e-015
lhumerus -27.9312 -4.16876 81.3565
lradius 34.7964
lwrist -22.3904
lhand -8.94575 21.5326
lfingers 7.12502
lthumb 16.9987 50.8088
rfemur -42.0525 10.0022 15.0111
rtibia 26.7108
rfoot -14.2729 -18.6029
rtoes 16.5983
lfemur 5.83729 -5.71456 -29.8556
ltibia 8.55389
lfoot -14.5647 10.9255
ltoes -15.0914
392
root 9.7327 16.4663 33.4791 6.1185 -0.437212 2.74178
lowerback 0.994057 -2.12375 -3.79977
upperback -3.4163 -2.92571 0.956615
thorax -3.8436 -1.32339 3.23638
lowerneck -3.40392 -0.298619 -13.9826
upperneck 8.57449 -0.478111 11.7336
head 3.13479 -0.216035 5.90414
rclavicle 4.93607e-014 1.35174e-014
rhumerus -46.7928 -9.53733 -74.9988
rradius 19.1642
rwrist 10.2349
rhand -15.957 26.895
rfingers 7.12502
rthumb 10.2416 -2.83568
lclavicle 4.93607e-014 1.35174e-014
lhumerus -27.7833 -4.37153 81.2177
lradius 35.0074
lwrist -21.864
lhand -9.53461 21.7763
lfingers 7.12502
lthumb 16.4318 51.1004
rfemur -41.3757 10.2587 14.0669
rtibia 24.9
rfoot -15.7632 -19.0217
rtoes 18.4488
lfemur 9.09151 -5.37871 -30.4818
ltibia 5.13499
lfoot -13.408 10.3712
ltoes -16.0112
393
root 9.74071 16.4457 33.7244 5.12813 0.0175495 4.66001
lowerback 1.08819 -2.30301 -5.3415
upperback -2.83671 -3.22149 0.311215
thorax -3.23009 -1.46223 3.42725
lowerneck -2.05948 0.187657 -14.8786
upperneck 6.93366 0.0651443 12.9528
head 2.34553 0.044296 6.4342
rclavicle -2.08561e-014 -2.78299e-015
rhumerus -47.0109 -10.4892 -74.1836
rradius 18.8022
rwrist 10.6292
rhand -15.2875 26.2862
rfingers 7.12502
rthumb 10.8875 -3.41157
lclavicle -2.08561e-014 -2.78299e-015
lhumerus -27.3478 -4.22796 80.9475
lradius 35.4361
lwrist -21.8831
lhand -9.83795 21.9893
lfingers 7.12502
lthumb 16.1397 51.3373
rfemur -40.2273 10.0082 11.7784
rtibia 23.4591
rfoot -17.7996 -18.7146
rtoes 21.6584
lfemur 13.7937 -5.16074 -32.6016
ltibia 0
lfoot -11.4677 9.58474
ltoes -14.1085
394
root 9.70404 16.4344 33.8776 6.21518 -0.177087 2.61485
lowerback 0.438256 -2.23236 -3.60153
upperback -3.1326 -3.03805 0.989924
thorax -3.23243 -1.40376 3.12912
lowerneck -1.74878 0.333398 -15.1862
upperneck 6.44733 0.249941 13.2124
head 2.12267 0.130303 6.56578
rclavicle -2.9181e-015 -7.95139e-016
rhumerus -47.3603 -11.2517 -73.3761
rradius 18.4348
rwrist 11.3091
rhand -14.3889 25.8655
rfingers 7.12502
rthumb 11.7541 -3.78467
lclavicle -2.9181e-015 -7.95139e-016
lhumerus -27.021 -3.94847 80.7457
lradius 35.7491
lwrist -22.0686
lhand -9.92303 21.8003
lfingers 7.12502
lthumb 16.0578 51.1549
rfemur -42.1495 14.6078 11.2555
rtibia 22.3539
rfoot -20.6242 -22.6124
rtoes 24.6343
lfemur 13.1711 -4.43342 -29.9925
ltibia -1.27222e-014
lfoot -11.6195 8.8625
ltoes -11.7814
395
root 9.68612 16.4112 34.0651 6.33248 -0.137862 2.07513
lowerback 0.560654 -2.30598 -3.22312
upperback -3.31538 -3.12511 1.29931
thorax -3.48619 -1.44518 3.25055
lowerneck -1.56036 0.469246 -15.2768
upperneck 6.48384 0.424628 12.943
head 2.0786 0.201734 6.49634
rclavicle 2.02496e-014 2.98177e-014
rhumerus -47.9922 -11.4788 -72.5699
rradius 18.0506
rwrist 12.1446
rhand -14.0476 25.6572
rfingers 7.12502
rthumb 12.0832 -3.97388
lclavicle 2.02496e-014 2.98177e-014
lhumerus -27.0285 -3.80216 80.7005
lradius 35.8474
lwrist -21.788
lhand -9.83603 21.5481
lfingers 7.12502
lthumb 16.1415 50.8959
rfemur -43.2287 18.664 9.23411
rtibia 22.1168
rfoot -23.847 -26.3326
rtoes 26.1113
lfemur 13.7649 -3.84632 -29.1986
ltibia 4.13472e-014
lfoot -11.6518 8.28378
ltoes -12.522
396
root 9.68206 16.3897 34.2829 5.79211 0.375873 2.70689
lowerback 0.896639 -2.54712 -3.76988
upperback -3.18686 -3.47543 1.18849
thorax -3.49207 -1.60731 3.4644
lowerneck -1.55515 0.592301 -15.25
upperneck 6.63179 0.586245 12.8357
head 2.0985 0.278333 6.46166
rclavicle -4.89446e-014 -1.78906e-014
rhumerus -48.4927 -11.8158 -71.8145
rradius 17.688
rwrist 13.0759
rhand -14.0819 25.1897
rfingers 7.12502
rthumb 12.0502 -4.44339
lclavicle -4.89446e-014 -1.78906e-014
lhumerus -26.9784 -3.77437 80.627
lradius 35.9762
lwrist -21.3691
lhand -9.82335 21.673
lfingers 7.12502
lthumb 16.1538 51.0198
rfemur -41.776 17.7629 9.16444
rtibia 20.8899
rfoot -24.5095 -25.226
rtoes 26.538
lfemur 15.1523 -3.71253 -29.7725
ltibia -5.40694e-014
lfoot -11.5419 7.80919
ltoes -14.4134
397
root 9.68684 16.3675 34.5368 4.68592 1.08007 4.11203
lowerback 1.31847 -2.76076 -4.85625
upperback -2.79935 -3.81892 0.69877
thorax -3.26595 -1.76764 3.5843
lowerneck -1.9204 0.458146 -15.0212
upperneck 7.12059 0.4254 12.6678
head 2.3276 0.205496 6.3754
rclavicle -8.00264e-015 -1.03368e-014
rhumerus -49.1449 -12.3245 -71.1215
rradius 17.5187
rwrist 13.877
rhand -13.8025 24.5471
rfingers 7.12502
rthumb 12.3195 -5.07002
lclavicle -8.00264e-015 -1.03368e-014
lhumerus -26.9166 -3.84759 80.498
lradius 36.0052
lwrist -21.3778
lhand -10.0322 21.785
lfingers 7.12502
lthumb 15.9527 51.1481
rfemur -39.9075 16.6507 8.54671
rtibia 20.6426
rfoot -24.519 -24.6502
rtoes 23.8654
lfemur 17.3044 -3.69254 -31.2371
ltibia -1.90833e-014
lfoot -11.543 7.19814
ltoes -14.2726
398
root 9.6457 16.3476 34.6999 5.20033 0.911146 3.47731
lowerback 1.521 -2.64792 -4.62456
upperback -3.28552 -3.67273 1.01752
thorax -3.89383 -1.66944 3.80947
lowerneck -1.95875 0.351617 -14.8738
upperneck 7.53734 0.278379 12.3002
head 2.48059 0.121974 6.23527
rclavicle 4.23349e-015 -1.19271e-014
rhumerus -50.0209 -12.2747 -70.6688
rradius 17.4551
rwrist 13.7339
rhand -13.38 24.2759
rfingers 7.12502
rthumb 12.7268 -5.31623
lclavicle 4.23349e-015 -1.19271e-014
lhumerus -27.1438 -3.87197 80.518
lradius 35.8405
lwrist -21.6144
lhand -10.4829 21.6332
lfingers 7.12502
lthumb 15.5186 51.0305
rfemur -40.5653 16.4555 9.6135
rtibia 20.7039
rfoot -23.6577 -24.4071
rtoes 22.801
lfemur 17.2021 -3.02926 -30.1475
ltibia -1.59028e-014
lfoot -11.0899 6.47793
ltoes -13.6236
399
root 9.61693 16.3283 34.8844 5.4876 0.914182 3.0433
lowerback 1.58946 -2.59006 -4.39382
upperback -3.6456 -3.5884 1.27047
thorax -4.3143 -1.61189 3.95681
lowerneck -1.52888 0.375009 -14.8958
upperneck 7.61566 0.267015 12.0003
head 2.43619 0.0931211 6.14079
rclavicle 1.94001e-014 1.19271e-015
rhumerus -50.7872 -12.7014 -69.6996
rradius 17.1184
rwrist 14.2275
rhand -13.437 24.5692
rfingers 7.12502
rthumb 12.6719 -5.02635
lclavicle 1.94001e-014 1.19271e-015
lhumerus -27.3708 -3.7642 80.6997
lradius 35.6527
lwrist -21.7451
lhand -10.8194 21.5402
lfingers 7.12502
lthumb 15.1944 50.9623
rfemur -40.3916 14.3055 11.6695
rtibia 20.7894
rfoot -21.2366 -22.1898
rtoes 21.1609
lfemur 17.5281 -2.4861 -29.3523
ltibia 9.54166e-015
lfoot -10.736 5.88997
ltoes -13.8363
400
root 9.5945 16.3122 35.0855 5.34876 1.03921 3.03417
lowerback 1.68037 -2.58394 -4.45969
upperback -3.67624 -3.58482 1.34106
thorax -4.39056 -1.60362 4.07319
lowerneck -1.35691 0.368537 -15.0499
upperneck 7.64004 0.235724 12.0442
head 2.4186 0.0693924 6.17968
rclavicle 3.85394e-014 -1.66979e-014
rhumerus -51.3796 -13.3244 -68.7489
rradius 16.961
rwrist 15.1374
rhand -13.7764 24.7833
rfingers 7.12502
rthumb 12.3447 -4.83228
lclavicle 3.85394e-014 -1.66979e-014
lhumerus -27.2382 -3.66454 80.8065
lradius 35.4265
lwrist -21.8249
lhand -10.7253 21.4618
lfingers 7.12502
lthumb 15.2851 50.877
rfemur -39.4599 12.8449 12.8393
rtibia 20.3624
rfoot -18.1956 -20.5315
rtoes 21.1216
lfemur 18.3876 -2.02457 -29.0381
ltibia -3.18055e-015
lfoot -10.3239 5.25564
ltoes -13.8984
401
root 9.56974 16.2945 35.2938 5.14366 1.11974 2.79219
lowerback 1.68353 -2.5739 -4.22693
upperback -3.58179 -3.55763 1.41015
thorax -4.30447 -1.60114 4.01021
lowerneck -1.63127 0.338925 -15.03
upperneck 7.85705 0.225574 11.9819
head 2.53021 0.0682447 6.16075
rclavicle -1.35049e-014 1.98785e-015
rhumerus -51.8935 -13.4607 -68.3856
rradius 17.0962
rwrist 15.3117
rhand -13.3263 24.2548
rfingers 7.12502
rthumb 12.7787 -5.33411
lclavicle -1.35049e-014 1.98785e-015
lhumerus -27.0311 -3.61569 80.781
lradius 35.1644
lwrist -21.8986
lhand -10.8413 21.4509
lfingers 7.12502
lthumb 15.1733 50.8746
rfemur -38.7277 11.3579 14.3403
rtibia 20.69
rfoot -15.1914 -18.7621
rtoes 21.6967
lfemur 19.3746 -1.50274 -28.4592
ltibia -5.08889e-014
lfoot -9.7027 4.67736
ltoes -15.4571
402
root 9.543 16.2816 35.5054 5.11538 1.30675 2.4058
lowerback 1.5416 -2.60339 -3.86294
upperback -3.56555 -3.57251 1.52103
thorax -4.21841 -1.62184 3.91352
lowerneck -1.91919 0.369993 -14.8355
upperneck 8.22738 0.3013 11.6719
head 2.67991 0.104986 6.03722
rclavicle 2.07481e-015 -1.35174e-014
rhumerus -52.3118 -13.6105 -67.9423
rradius 17.0364
rwrist 15.5351
rhand -12.3176 23.1092
rfingers 7.12502
rthumb 13.751 -6.41638
lclavicle 2.07481e-015 -1.35174e-014
lhumerus -27.0812 -3.44772 80.731
lradius 35.1452
lwrist -21.8764
lhand -11.1329 21.7487
lfingers 7.12502
lthumb 14.8924 51.1934
rfemur -38.3278 9.92108 15.85
rtibia 21.4061
rfoot -13.3781 -16.8341
rtoes 24.6866
lfemur 20.127 -1.1103 -27.6965
ltibia 1.90833e-014
lfoot -8.75528 4.14248
ltoes -18.1562
403
root 9.51756 16.2786 35.7221 5.09757 1.58505 2.36008
lowerback 1.4038 -2.70394 -3.87335
upperback -3.60971 -3.70102 1.56632
thorax -4.17078 -1.68548 3.96503
lowerneck -2.21938 0.38485 -14.8579
upperneck 8.72192 0.341753 11.6157
head 2.871 0.12421 6.03373
rclavicle -2.06612e-014 1.11319e-014
rhumerus -52.6979 -13.6556 -67.5395
rradius 16.8809
rwrist 15.6733
rhand -12.013 22.7764
rfingers 7.12502
rthumb 14.0444 -6.72909
lclavicle -2.06612e-014 1.11319e-014
lhumerus -27.3253 -3.17028 80.6716
lradius 35.2123
lwrist -22.0173
lhand -10.886 22.124
lfingers 7.12502
lthumb 15.1303 51.5509
rfemur -38.0748 8.96685 16.5106
rtibia 22.1387
rfoot -12.3929 -15.2966
rtoes 31.4292
lfemur 19.4032 -0.810269 -27.2801
ltibia 2.64712
lfoot -8.77923 3.5773
ltoes -19.082
